<svg id="Layer_1" data-name="Layer 1" xmlns="http://www.w3.org/2000/svg" viewBox="0 0 384.62 135.96"><defs><style>.cls-1{fill:#231f20;}.cls-2{fill:#00aeef;}</style></defs><title>ESR logo</title><path class="cls-1" d="M385.81,297.79c7.75,7,15.12,11.14,25.76,11.14,5.88,0,16.64-2.5,16.64-10.26,0-4.51-3.37-6.76-10-7.88l-18.51-3c-16.52-2.62-25.52-11.37-25.52-24.52,0-21.52,17.4-30.4,36.41-30.4A52.83,52.83,0,0,1,449.86,250L433,262.13a30.79,30.79,0,0,0-23.89-11.25c-5.14,0-12.65,3.25-12.65,9,0,4.76,3.88,7.14,12.39,8.52l8.51,1.37c17.76,2.88,32.41,8.38,32.41,25.4,0,26.77-24.15,31.78-40.8,31.78-15.13,0-28-4.89-40.15-18.15Z" transform="translate(-224.07 -232.86)"/><path class="cls-1" d="M588.29,289.24c11.13-3.25,18.39-12.51,18.39-24,0-20-12.26-29.28-32.28-29.28H529.87V325h22.26V252.46h20.4c7.13.13,11.88,3.76,11.88,12s-4.75,11.88-11.88,12H557.39L583.8,325h24.88Z" transform="translate(-224.07 -232.86)"/><rect class="cls-1" x="1.26" y="3.08" width="64.52" height="18.06"/><rect class="cls-1" x="1.26" y="38.67" width="64.52" height="18.06"/><rect class="cls-1" x="1.26" y="74.26" width="64.52" height="18.05"/><polygon class="cls-2" points="122.45 3.08 90.1 92.31 100.94 92.31 133.34 3.08 122.45 3.08"/><polygon class="cls-2" points="274.62 3.08 242.27 92.31 253.1 92.31 285.5 3.08 274.62 3.08"/><path class="cls-1" d="M224.07,362.84l2.57-.94c1,2.79,3.48,4.42,6.85,4.42s5.91-1.6,5.91-4.45c0-2.64-1.6-3.79-3.82-4.42l-4.7-1.32c-3.48-1-5.49-2.78-5.49-6.33,0-4.1,3.48-6.67,8-6.67,3.83,0,7,1.42,8.31,4.69l-2.43,1a6.15,6.15,0,0,0-5.91-3.31c-2.54,0-5.15,1.29-5.15,4.07,0,1.95,1.15,3.17,4.07,4L237,355c2.88.87,5.18,2.64,5.18,6.57,0,4.24-3.51,7.2-8.8,7.2C228.83,368.79,225.21,366.74,224.07,362.84Z" transform="translate(-224.07 -232.86)"/><path class="cls-1" d="M246.3,361.77v-3.9c0-4.62,3-7.3,7.23-7.3,4,0,6.89,2.26,6.89,6.05v.45h-2.51v-.59c0-2-1.46-3.75-4.34-3.75s-4.66,2-4.66,4.9v4.21c0,2.81,1.56,4.76,4.69,4.76,2.89,0,4.31-1.77,4.31-3.72v-.49h2.51v.38c0,3.76-2.79,6.05-6.82,6.05C249.25,368.82,246.3,366.29,246.3,361.77Z" transform="translate(-224.07 -232.86)"/><path class="cls-1" d="M264.71,343.58h2.57v3.79h-2.57Zm0,7.34h2.57v17.45h-2.57Z" transform="translate(-224.07 -232.86)"/><path class="cls-1" d="M271.88,361.73v-3.68c0-4.8,3.26-7.48,7.47-7.48,3.86,0,6.92,2.33,6.92,6.85v2.75H274.48V362c0,2.86,2,4.63,5.08,4.63a5.55,5.55,0,0,0,4.42-2.23l2,1.19a7.4,7.4,0,0,1-6.57,3.26C275.11,368.82,271.88,366.53,271.88,361.73Zm11.82-3.51v-.87c0-2.64-1.57-4.62-4.49-4.62a4.62,4.62,0,0,0-4.73,4.86v.63Z" transform="translate(-224.07 -232.86)"/><path class="cls-1" d="M290.75,350.92h2.51v3h.07a6.36,6.36,0,0,1,5.73-3.41c3.72,0,5.6,2.44,5.6,5.78v12.06h-2.57V357.28c0-3.09-1.5-4.49-3.83-4.49a4.94,4.94,0,0,0-4.93,5.29v10.29h-2.58Z" transform="translate(-224.07 -232.86)"/><path class="cls-1" d="M309.17,361.77v-3.9c0-4.62,3-7.3,7.23-7.3,4,0,6.89,2.26,6.89,6.05v.45h-2.51v-.59c0-2-1.46-3.75-4.34-3.75s-4.66,2-4.66,4.9v4.21c0,2.81,1.56,4.76,4.69,4.76,2.89,0,4.31-1.77,4.31-3.72v-.49h2.51v.38c0,3.76-2.79,6.05-6.82,6.05C312.12,368.82,309.17,366.29,309.17,361.77Z" transform="translate(-224.07 -232.86)"/><path class="cls-1" d="M327.07,361.73v-3.68c0-4.8,3.27-7.48,7.48-7.48,3.86,0,6.92,2.33,6.92,6.85v2.75H329.68V362c0,2.86,2,4.63,5.07,4.63a5.55,5.55,0,0,0,4.42-2.23l2,1.19a7.39,7.39,0,0,1-6.57,3.26C330.3,368.82,327.07,366.53,327.07,361.73Zm11.82-3.51v-.87c0-2.64-1.56-4.62-4.48-4.62a4.61,4.61,0,0,0-4.73,4.86v.63Z" transform="translate(-224.07 -232.86)"/><path class="cls-1" d="M357,353h-3.1V351H357v-3c0-3.2,1.67-4.94,4.73-4.94a8.41,8.41,0,0,1,1.91.21v2.26a6.57,6.57,0,0,0-1.71-.17,2.18,2.18,0,0,0-2.36,2.5V351h4V353h-4v15.37H357Z" transform="translate(-224.07 -232.86)"/><path class="cls-1" d="M366.37,362.08v-4.52c0-4.59,3.34-7,7.27-7,4.31,0,7.34,2.54,7.34,6.95v4.28c0,4.56-3.27,7-7.23,7C369.47,368.82,366.37,366.49,366.37,362.08Zm12-.18v-4.62c0-2.64-1.6-4.52-4.73-4.52a4.28,4.28,0,0,0-4.66,4.66V362c0,2.75,1.67,4.59,4.77,4.59C376.63,366.6,378.37,365,378.37,361.9Z" transform="translate(-224.07 -232.86)"/><path class="cls-1" d="M385.52,350.92H388v3.51h.07a6.86,6.86,0,0,1,6.29-3.79,7.42,7.42,0,0,1,1.29.1v2.44a8.54,8.54,0,0,0-1.6-.11c-3.31,0-5.91,2-6,5.77v9.53h-2.58Z" transform="translate(-224.07 -232.86)"/><path class="cls-1" d="M408.1,360.51v-8.58c0-5.29,4-8.77,9.42-8.77,4.94,0,8.83,2.85,8.83,7.44v1.22h-2.67V351c0-3.34-2.61-5.28-6.26-5.28s-6.51,2.29-6.51,6.22v8.31c0,3.76,2.78,6.12,6.68,6.12,3.62,0,6.09-2,6.09-5.32v-.52h2.67v.9c0,4.7-3.82,7.44-8.76,7.44C412.3,368.82,408.1,365.94,408.1,360.51Z" transform="translate(-224.07 -232.86)"/><path class="cls-1" d="M430.67,362.08v-4.52c0-4.59,3.34-7,7.27-7,4.31,0,7.34,2.54,7.34,6.95v4.28c0,4.56-3.27,7-7.23,7C433.77,368.82,430.67,366.49,430.67,362.08Zm12-.18v-4.62c0-2.64-1.6-4.52-4.73-4.52a4.28,4.28,0,0,0-4.66,4.66V362c0,2.75,1.67,4.59,4.77,4.59C440.93,366.6,442.67,365,442.67,361.9Z" transform="translate(-224.07 -232.86)"/><path class="cls-1" d="M449.87,350.92h2.47v3h.07a6.42,6.42,0,0,1,5.81-3.41,4.93,4.93,0,0,1,4.94,3.48h0a6.7,6.7,0,0,1,6-3.48,5.21,5.21,0,0,1,5.6,5.53v12.31H472.2V357.28c0-3-1.32-4.49-3.79-4.49a4.9,4.9,0,0,0-4.77,5v10.57h-2.57V357.21c-.07-2.82-1.29-4.42-3.79-4.42a4.9,4.9,0,0,0-4.83,5v10.53h-2.58Z" transform="translate(-224.07 -232.86)"/><path class="cls-1" d="M479.94,350.92h2.47v3h.07a6.42,6.42,0,0,1,5.81-3.41,4.92,4.92,0,0,1,4.93,3.48h0a6.7,6.7,0,0,1,6-3.48,5.21,5.21,0,0,1,5.6,5.53v12.31h-2.57V357.28c0-3-1.33-4.49-3.79-4.49a4.9,4.9,0,0,0-4.77,5v10.57h-2.57V357.21c-.07-2.82-1.29-4.42-3.79-4.42a4.91,4.91,0,0,0-4.84,5v10.53h-2.57Z" transform="translate(-224.07 -232.86)"/><path class="cls-1" d="M509.87,363V350.92h2.61V362c0,3.09,1.49,4.45,3.82,4.45,2.61,0,4.87-2,4.87-5.29V350.92h2.61v17.45h-2.54v-3h-.07a6.3,6.3,0,0,1-5.7,3.44C511.75,368.79,509.87,366.29,509.87,363Z" transform="translate(-224.07 -232.86)"/><path class="cls-1" d="M529,350.92h2.51v3h.07a6.36,6.36,0,0,1,5.73-3.41c3.72,0,5.6,2.44,5.6,5.78v12.06h-2.57V357.28c0-3.09-1.5-4.49-3.83-4.49a4.94,4.94,0,0,0-4.93,5.29v10.29H529Z" transform="translate(-224.07 -232.86)"/><path class="cls-1" d="M548,343.58h2.57v3.79H548Zm0,7.34h2.57v17.45H548Z" transform="translate(-224.07 -232.86)"/><path class="cls-1" d="M557.56,364.72V353h-3V351h3v-5.46h2.6V351H565V353h-4.8v11c0,1.74.87,2.26,2.44,2.26a12.43,12.43,0,0,0,2.54-.31v2.22a12,12,0,0,1-3.24.46C559.61,368.69,557.56,367.71,557.56,364.72Z" transform="translate(-224.07 -232.86)"/><path class="cls-1" d="M569.12,343.58h2.57v3.79h-2.57Zm0,7.34h2.57v17.45h-2.57Z" transform="translate(-224.07 -232.86)"/><path class="cls-1" d="M576.29,361.73v-3.68c0-4.8,3.27-7.48,7.48-7.48,3.86,0,6.92,2.33,6.92,6.85v2.75H578.9V362c0,2.86,2,4.63,5.07,4.63a5.55,5.55,0,0,0,4.42-2.23l2,1.19a7.39,7.39,0,0,1-6.57,3.26C579.52,368.82,576.29,366.53,576.29,361.73Zm11.82-3.51v-.87c0-2.64-1.56-4.62-4.48-4.62a4.61,4.61,0,0,0-4.73,4.86v.63Z" transform="translate(-224.07 -232.86)"/><path class="cls-1" d="M594.33,366l1.77-1.46a7,7,0,0,0,5.29,2.15c2.08,0,4.31-1.07,4.31-3.13s-1.29-2.5-3.69-2.95l-2-.42c-3-.59-4.9-2-4.9-4.48,0-3,2.47-5.22,6.26-5.22,2.64,0,4.73.63,6.09,2.19l-1.78,1.43a6.29,6.29,0,0,0-4.45-1.53c-2.12,0-3.51,1.07-3.51,2.74s1.36,2.23,3.72,2.72l2.61.55c2.57.56,4.28,1.95,4.28,4.52,0,3.79-3.52,5.67-6.89,5.67C598.57,368.79,596,368,594.33,366Z" transform="translate(-224.07 -232.86)"/></svg>